<svg width="495" height="288" viewBox="0 0 495 288" fill="none" xmlns="http://www.w3.org/2000/svg">
<g clip-path="url(#clip0_935_12314)">
<path d="M464.32 126.112C459.13 107.432 424.53 127.751 424.53 127.751L433.587 111.335C434.682 109.685 435.64 107.949 436.452 106.142C441.003 95.9795 440.944 85.0796 436.452 75.6409C435.22 69.8948 431.433 61.6804 421.072 52.6563C401.463 35.6417 335.722 23.9914 316.66 26.5782C297.598 29.1649 333.963 37.1687 333.963 37.1687H331.085C275.658 31.2975 219.889 30.5406 164.554 31.6859C150.676 31.9689 136.758 32.4297 123.17 34.7663C119.264 35.4245 115.062 36.471 112.73 39.6239C102.429 53.5976 144.682 54.9601 151.335 54.6902C122.307 58.4617 90.0786 59.6202 63.0733 70.8294C59.3123 72.3894 55.5777 74.2455 52.7388 77.1351C49.9 80.0246 48.0557 84.1384 48.6946 88.2653C50.5586 100.238 67.0253 103.792 76.4047 106.452C76.4047 106.452 22.5785 142.219 28.9214 160.372C31.8025 168.994 36.4988 176.898 42.6942 183.554C38.5822 188.607 35.0351 194.094 32.116 199.917C30.3969 203.432 28.164 208.243 30.0675 212.291C39.8685 232.906 188.549 303.69 307.689 283.483C339.338 278.118 370.862 269.246 398.585 253.554C426.196 237.935 454.335 212.133 461.29 179.605C461.521 178.532 461.685 177.492 461.804 176.478C466.177 161.491 468.667 141.738 464.32 126.112Z" fill="#1D4ED8" data-index="0"></path>
<path opacity="0.8" d="M464.32 126.112C459.13 107.432 424.53 127.751 424.53 127.751L433.586 111.335C434.682 109.685 435.64 107.949 436.452 106.142C441.003 95.9795 440.944 85.0796 436.452 75.6409C435.22 69.8948 431.433 61.6804 421.072 52.6563C401.463 35.6417 335.722 23.9914 316.66 26.5782C297.598 29.1649 333.963 37.1687 333.963 37.1687H331.085C275.658 31.2975 219.889 30.5406 164.554 31.6859C150.676 31.9689 136.758 32.4297 123.17 34.7663C119.264 35.4245 115.062 36.471 112.73 39.6239C102.429 53.5976 144.682 54.9601 151.335 54.6902C122.307 58.4617 90.0787 59.6202 63.0733 70.8294C59.3123 72.3894 55.5777 74.2455 52.7388 77.1351C49.9 80.0246 48.7868 84.0857 48.6946 88.2653C48.4312 99.3035 66.1888 103.404 76.4311 106.452C76.4311 106.452 22.6048 142.219 28.9478 160.372C31.8288 168.994 36.5252 176.898 42.7205 183.554C38.5994 188.606 35.0434 194.093 32.116 199.917C30.3969 203.432 28.164 208.243 30.0675 212.291C39.8685 232.906 188.549 303.69 307.689 283.483C339.338 278.118 370.862 269.246 398.585 253.554C426.196 237.935 454.335 212.133 461.29 179.605C461.521 178.532 461.685 177.492 461.804 176.478C466.177 161.491 468.667 141.738 464.32 126.112Z" fill="white" data-index="1" style="opacity: 1; visibility: visible; fill: rgb(211, 218, 253);"></path>
<path d="M379.536 106.577L379.214 106.281C379.174 106.248 375.262 102.714 372.107 103.339C368.952 103.964 368.346 105.735 368.319 105.814L367.693 105.603C367.693 105.511 368.471 103.398 371.975 102.694C374.945 102.101 378.298 104.668 379.339 105.517C379.997 104.26 382.342 100.311 384.773 100.008C387.572 99.6595 390.602 101.983 390.701 102.088L390.299 102.608C390.266 102.608 387.342 100.344 384.825 100.634C382.309 100.923 379.727 106.11 379.701 106.163L379.536 106.577Z" fill="#1E40AF" data-index="2"></path>
<path d="M370.795 119.34L370.473 119.044C370.433 119.011 366.521 115.47 363.366 116.102C360.211 116.734 359.611 118.498 359.585 118.57L358.959 118.36C358.959 118.274 359.73 116.161 363.241 115.457C366.205 114.865 369.557 117.432 370.598 118.281C371.257 117.024 373.601 113.068 376.032 112.765C378.838 112.423 381.861 114.74 381.96 114.851L381.558 115.371C381.558 115.371 378.607 113.101 376.091 113.397C373.575 113.693 370.993 118.873 370.967 118.926L370.795 119.34Z" fill="#1E40AF" data-index="3"></path>
<path d="M399.994 119.339L399.672 119.043C399.672 119.043 396.701 116.351 394.33 116.825C391.959 117.299 391.53 118.595 391.511 118.654L390.885 118.444C390.885 118.371 391.491 116.719 394.178 116.18C396.391 115.739 398.894 117.562 399.77 118.286C400.343 117.239 402.089 114.337 403.92 114.126C406.08 113.863 408.412 115.653 408.531 115.732L408.129 116.252C408.129 116.252 405.916 114.541 404.019 114.784C402.491 114.975 400.725 117.851 400.185 118.951L399.994 119.339Z" fill="#1E40AF" data-index="4"></path>
<path d="M434.344 132.775L434.021 132.479C434.021 132.479 432.104 130.754 430.616 131.05C429.127 131.346 428.863 132.143 428.85 132.176L428.192 131.965C428.192 131.919 428.613 130.774 430.457 130.405C431.874 130.122 433.448 131.195 434.113 131.722C434.554 130.932 435.654 129.207 436.853 129.089C438.302 128.898 439.883 130.109 439.949 130.162L439.547 130.682C439.547 130.682 438.111 129.589 436.912 129.74C435.957 129.859 434.838 131.715 434.482 132.413L434.344 132.775Z" fill="#1E40AF" data-index="5"></path>
<path d="M271.983 117.537H140.421L140.776 117.024C140.921 116.813 144.327 111.975 148.614 112.363C149.319 112.429 149.991 112.502 150.59 112.574C153.627 112.91 155.82 113.153 156.96 111.732C157.382 111.075 157.61 110.313 157.618 109.533C157.809 108 158.02 106.242 160.852 105.228C162.532 104.616 164.278 105.084 165.964 105.538C167.769 106.025 169.474 106.486 170.976 105.63C172.478 104.774 172.748 103.056 173.025 101.24C173.129 99.9841 173.49 98.7632 174.085 97.6525C175.896 94.8419 179.848 93.3412 182.681 93.3412H182.733C184.644 93.3412 186.356 94.2298 188.003 95.0657C189.887 96.0267 191.672 96.935 193.654 96.5928C194.273 96.4389 194.846 96.1377 195.323 95.7147C195.8 95.2918 196.167 94.7597 196.394 94.164C197.011 92.6455 197.463 91.0657 197.744 89.4512C198.324 86.6802 198.871 84.0605 201.512 81.6317C204.549 78.9772 208.32 77.3043 212.327 76.8334C228.504 74.5429 246.374 86.5683 249.832 102.076C249.832 102.201 250.569 105.209 253.277 105.209C254.22 105.118 255.147 104.896 256.03 104.55C259.376 103.445 264.428 101.766 268.248 107.644C273.116 115.128 272.147 117.195 272.022 117.405L271.983 117.537ZM141.718 116.879H271.555C271.653 116.293 271.653 113.969 267.754 107.973C264.21 102.53 259.633 104.024 256.293 105.149C255.347 105.529 254.351 105.77 253.336 105.867C250.095 105.867 249.259 102.26 249.246 102.22C245.86 87.0225 228.339 75.234 212.479 77.485C208.605 77.9309 204.956 79.537 202.013 82.0925C199.536 84.3765 199.009 86.8908 198.449 89.5565C198.16 91.2163 197.694 92.8404 197.059 94.4009C196.795 95.1006 196.361 95.724 195.797 96.2155C195.232 96.7071 194.555 97.0515 193.825 97.2181C191.625 97.5933 189.663 96.5599 187.759 95.6252C186.178 94.8222 184.538 93.9863 182.786 93.9731H182.733C180.039 93.9731 176.318 95.4672 174.691 97.9816C174.144 99.0322 173.816 100.183 173.729 101.365C173.44 103.254 173.137 105.209 171.352 106.222C169.567 107.236 167.696 106.703 165.845 106.222C164.258 105.795 162.611 105.354 161.129 105.893C158.679 106.782 158.494 108.177 158.33 109.658C158.302 110.564 158.016 111.443 157.506 112.192C156.143 113.897 153.673 113.621 150.551 113.272C149.892 113.199 149.234 113.127 148.575 113.068C145.44 112.732 142.706 115.661 141.718 116.879Z" fill="#1E40AF" data-index="6" style="opacity: 1;"></path>
<path d="M295.089 83.4808H241.816L242.171 82.9609C242.231 82.8753 243.66 80.8414 245.465 80.9862L246.275 81.0718C247.546 81.2166 248.284 81.2693 248.653 80.8085C248.803 80.5749 248.883 80.303 248.883 80.0253C248.885 79.5983 249.025 79.1834 249.283 78.8428C249.541 78.5023 249.902 78.2543 250.312 78.1362C251.029 77.9478 251.787 77.9892 252.479 78.2547C253.07 78.5157 253.738 78.537 254.344 78.3139C254.864 78.0112 254.956 77.399 255.068 76.6947C255.109 76.1613 255.264 75.6429 255.523 75.1743C255.947 74.6174 256.492 74.1645 257.117 73.8497C257.743 73.5349 258.432 73.3666 259.132 73.3576C259.911 73.4171 260.665 73.6607 261.332 74.0685C261.964 74.4937 262.718 74.7016 263.479 74.6609C263.695 74.6044 263.894 74.4973 264.06 74.3485C264.226 74.1997 264.355 74.0134 264.434 73.8052C264.673 73.2062 264.85 72.5842 264.961 71.9491C265.099 70.7212 265.655 69.578 266.535 68.7107C267.784 67.6189 269.334 66.9305 270.981 66.7361C277.568 65.8014 284.813 70.6853 286.243 77.0173C286.243 77.0633 286.513 78.1165 287.435 78.1165C287.792 78.0753 288.142 77.9868 288.476 77.8532C289.879 77.3924 291.986 76.6882 293.607 79.1696C295.537 82.1381 295.253 83.0793 295.122 83.2966L295.089 83.4808ZM243.146 82.8226H294.621C294.621 82.4738 294.404 81.5062 293.113 79.5316C291.822 77.557 290.096 78.0309 288.746 78.4785C288.345 78.6379 287.924 78.7377 287.494 78.7747C287.049 78.7504 286.626 78.5766 286.292 78.2815C285.959 77.9863 285.735 77.5872 285.657 77.1489C284.339 71.1526 277.39 66.4991 271.133 67.3877C269.616 67.5661 268.189 68.1969 267.036 69.1978C266.255 69.9713 265.771 70.9937 265.666 72.0873C265.546 72.7632 265.356 73.4249 265.1 74.0619C264.979 74.3722 264.783 74.6481 264.531 74.865C264.278 75.082 263.976 75.2334 263.65 75.3059C262.749 75.3793 261.849 75.1475 261.095 74.6477C260.516 74.2864 259.863 74.0613 259.185 73.9895C258.59 73.9895 258.004 74.1259 257.47 74.3884C256.937 74.6509 256.471 75.0324 256.109 75.5034C255.906 75.8965 255.785 76.3263 255.753 76.7671C255.635 77.5307 255.496 78.3995 254.699 78.8537C253.902 79.3078 253.125 79.0774 252.341 78.8537C251.778 78.632 251.161 78.5839 250.569 78.7154C250.278 78.7888 250.021 78.9593 249.84 79.1987C249.659 79.4381 249.566 79.732 249.575 80.0318C249.562 80.4314 249.431 80.8184 249.199 81.1442C248.587 81.9143 247.546 81.8024 246.235 81.651L245.438 81.572C244.496 81.572 243.634 82.2763 243.146 82.8226Z" fill="#1E40AF" data-index="7" style="opacity: 1;"></path>
<path d="M406.996 160.128H353.723L354.085 159.614C354.145 159.529 355.574 157.488 357.379 157.64L358.189 157.725C359.46 157.864 360.165 157.923 360.567 157.462C360.716 157.228 360.798 156.957 360.804 156.679C360.805 156.253 360.944 155.838 361.201 155.498C361.457 155.158 361.817 154.909 362.226 154.79C362.943 154.598 363.702 154.639 364.393 154.908C364.984 155.171 365.653 155.19 366.257 154.961C366.778 154.665 366.87 154.053 366.982 153.342C367.026 152.811 367.181 152.295 367.436 151.828C367.863 151.268 368.413 150.812 369.043 150.498C369.673 150.183 370.368 150.016 371.072 150.011C371.863 150.07 372.629 150.315 373.305 150.729C373.939 151.152 374.692 151.359 375.452 151.321C375.667 151.264 375.865 151.157 376.03 151.008C376.195 150.859 376.322 150.673 376.401 150.465C376.642 149.867 376.819 149.245 376.928 148.609C377.066 147.381 377.621 146.238 378.502 145.371C379.749 144.277 381.3 143.588 382.948 143.396C389.535 142.462 396.78 147.345 398.209 153.671C398.209 153.723 398.479 154.777 399.402 154.777C399.758 154.733 400.108 154.645 400.442 154.513C401.845 154.046 403.96 153.348 405.573 155.83C407.503 158.792 407.22 159.74 407.095 159.957L406.996 160.128ZM355.054 159.47H406.528C406.528 159.127 406.311 158.186 405.02 156.179C403.729 154.171 402.003 154.678 400.653 155.125C400.253 155.285 399.831 155.385 399.402 155.422C398.959 155.396 398.537 155.223 398.205 154.929C397.873 154.635 397.65 154.239 397.57 153.802C396.253 147.8 389.311 143.14 383.04 144.035C381.524 144.208 380.095 144.837 378.943 145.838C378.167 146.615 377.683 147.636 377.573 148.728C377.454 149.404 377.264 150.066 377.007 150.702C376.888 151.013 376.694 151.29 376.442 151.508C376.191 151.726 375.889 151.879 375.564 151.953C374.661 152.02 373.761 151.789 373.002 151.295C372.427 150.927 371.772 150.701 371.092 150.637C370.502 150.645 369.921 150.785 369.392 151.047C368.863 151.309 368.4 151.686 368.036 152.15C367.834 152.543 367.713 152.973 367.68 153.414C367.562 154.178 367.423 155.046 366.633 155.501C365.842 155.955 365.052 155.724 364.268 155.501C363.706 155.275 363.087 155.227 362.496 155.362C362.2 155.437 361.938 155.612 361.757 155.859C361.575 156.105 361.485 156.406 361.502 156.712C361.486 157.11 361.358 157.495 361.133 157.824C360.514 158.594 359.473 158.482 358.162 158.331C357.912 158.331 357.642 158.272 357.365 158.252C356.404 158.226 355.521 158.95 355.054 159.47Z" fill="#1E40AF" data-index="8"></path>
<path d="M327.594 156.495H246.433L246.795 155.981C246.881 155.85 249.008 152.816 251.722 153.066L252.96 153.191C254.785 153.395 256.109 153.546 256.761 152.723C257.014 152.33 257.151 151.874 257.156 151.407C257.147 150.785 257.346 150.178 257.72 149.681C258.094 149.184 258.624 148.826 259.224 148.662C260.291 148.274 261.385 148.563 262.438 148.847C263.492 149.13 264.546 149.419 265.422 148.912C266.298 148.406 266.456 147.392 266.621 146.312C266.683 145.523 266.908 144.754 267.28 144.055C268.413 142.291 270.896 141.35 272.668 141.35C273.834 141.448 274.961 141.815 275.961 142.422C277.107 143.002 278.181 143.548 279.36 143.35C279.719 143.259 280.051 143.082 280.328 142.834C280.604 142.586 280.816 142.276 280.947 141.929C281.32 141.003 281.596 140.042 281.77 139.059C282.133 137.334 282.469 135.709 284.122 134.188C286.008 132.539 288.351 131.5 290.84 131.207C300.832 129.791 311.885 137.223 314.025 146.813C314.065 146.997 314.499 148.642 316.001 148.642C316.569 148.581 317.125 148.442 317.654 148.228C319.749 147.537 322.924 146.484 325.308 150.202C328.285 154.77 327.765 156.126 327.633 156.337L327.594 156.495ZM247.744 155.837H327.152C327.152 155.396 327.021 153.948 324.814 150.571C322.693 147.28 320.045 148.182 317.925 148.886C317.328 149.123 316.7 149.274 316.061 149.334C314.42 149.334 313.63 147.866 313.426 146.997C311.358 137.723 300.661 130.542 290.978 131.898C288.621 132.171 286.402 133.153 284.616 134.715C283.121 136.084 282.811 137.545 282.462 139.23C282.281 140.258 281.992 141.264 281.599 142.232C281.428 142.681 281.149 143.08 280.785 143.395C280.422 143.71 279.987 143.929 279.518 144.035C278.121 144.272 276.883 143.653 275.711 143.048C274.8 142.488 273.772 142.145 272.707 142.047C271.08 142.047 268.828 142.929 267.846 144.45C267.524 145.063 267.329 145.734 267.273 146.424C267.089 147.616 266.898 148.847 265.752 149.498C264.605 150.15 263.433 149.814 262.267 149.498C261.266 149.228 260.324 148.972 259.448 149.294C258.012 149.814 257.92 150.611 257.808 151.499C257.793 152.081 257.607 152.646 257.275 153.125C256.392 154.224 254.844 154.053 252.888 153.836L251.663 153.704C249.963 153.559 248.448 155.027 247.744 155.837Z" fill="#1E40AF" data-index="9"></path>
<path d="M332.646 257.29C332.646 257.29 327.845 252.321 329.188 252.466C330.532 252.61 333.061 256.336 333.061 256.336C333.061 256.336 333.094 248.141 334.293 249.932C335.492 251.722 334.023 256.369 334.023 256.369C334.023 256.369 337.448 251.031 337.441 251.9C337.441 254.598 334.807 256.711 334.807 256.711C334.807 256.711 340.293 252.65 339.417 254.295C338.541 255.941 335.011 257.501 335.011 257.501C335.011 257.501 341.334 256.224 339.088 257.126C336.842 258.028 334.708 258.64 334.708 258.64H332.956C332.956 258.64 326.988 255.645 329.234 256.092C330.43 256.303 331.582 256.707 332.646 257.29Z" fill="#1E40AF" data-index="10"></path>
<path d="M396.069 241.733C396.069 241.733 392.328 237.862 393.382 237.981C394.436 238.099 396.392 240.989 396.392 240.989C396.392 240.989 396.392 234.611 397.354 236.006C398.315 237.402 397.136 241.015 397.136 241.015C397.136 241.015 399.804 236.862 399.771 237.54C399.771 239.64 397.716 241.285 397.716 241.285C397.716 241.285 401.984 238.119 401.286 239.403C400.588 240.686 397.861 241.897 397.861 241.897C397.861 241.897 402.781 240.903 401.029 241.601C399.277 242.299 397.617 242.779 397.617 242.779H396.26C396.26 242.779 391.61 240.449 393.362 240.805C394.309 240.964 395.224 241.277 396.069 241.733Z" fill="#1E40AF" data-index="11"></path>
<path d="M454.98 227.85C454.98 227.85 451.246 223.98 452.293 224.098C453.34 224.217 455.303 227.106 455.303 227.106C455.303 227.106 455.303 220.728 456.265 222.123C457.226 223.519 456.054 227.132 456.054 227.132C456.054 227.132 458.689 222.979 458.689 223.657C458.689 225.757 456.634 227.402 456.634 227.402C456.634 227.402 460.902 224.243 460.204 225.52C459.505 226.797 456.772 228.014 456.772 228.014C456.772 228.014 461.692 227.02 459.947 227.718C458.201 228.416 456.535 228.896 456.535 228.896H455.171C455.171 228.896 450.561 226.566 452.273 226.922C453.221 227.079 454.136 227.393 454.98 227.85Z" fill="#1E40AF" data-index="12"></path>
<path d="M379.892 259.556C379.892 259.556 375.426 254.948 376.684 255.073C377.942 255.198 380.281 258.667 380.281 258.667C380.281 258.667 380.281 251.052 381.427 252.743C382.573 254.435 381.209 258.674 381.209 258.674C381.209 258.674 384.397 253.711 384.391 254.52C384.391 257.028 381.934 258.99 381.934 258.99C381.934 258.99 387.032 255.218 386.195 256.745C385.359 258.272 382.105 259.727 382.105 259.727C382.105 259.727 387.98 258.542 385.892 259.378C383.805 260.214 381.815 260.78 381.815 260.78H380.195C380.195 260.78 374.642 258.002 376.73 258.417C377.839 258.624 378.906 259.009 379.892 259.556Z" fill="#1D4ED8" data-index="13"></path>
<path d="M291.315 239.724L252.025 195.703L243.338 202.647L199.958 137.386L162.243 145.784L150.94 124.689L139.973 124.11L119.324 83.4061L88.4455 111.564L73.4872 106.226L19.0879 161.647L18.6202 161.186L73.3093 105.463L88.294 110.814L119.521 82.3398L140.388 123.471L151.342 124.05L162.585 145.034L200.261 136.648L200.386 136.833L243.489 201.686L252.098 194.801L291.809 239.283L291.315 239.724Z" fill="#1E40AF" data-index="14"></path>
<path d="M295.072 242.954L294.581 243.393L298.724 248.035L299.215 247.596L295.072 242.954Z" fill="#1E40AF" data-index="15"></path>
<path d="M142.092 150.493L138.825 151.379L138.997 152.014L142.265 151.128L142.092 150.493Z" fill="#1E40AF" data-index="16"></path>
<path d="M162.255 145.033L145.771 149.502L145.944 150.137L162.427 145.668L162.255 145.033Z" fill="#1E40AF" data-index="17"></path>
<path d="M100.407 126.605L99.8601 126.237L109.022 112.724L108.403 108.077L108.443 107.985L119.04 86.4941L119.633 86.7838L109.081 108.189L109.707 112.882L100.407 126.605Z" fill="#1E40AF" data-index="18"></path>
<path d="M98.3196 128.504L96.0048 131.922L96.5503 132.291L98.8651 128.873L98.3196 128.504Z" fill="#1E40AF" data-index="19"></path>
<path d="M81.6876 139.964L66.7103 160.25L67.2403 160.641L82.2176 140.355L81.6876 139.964Z" fill="#1E40AF" data-index="20"></path>
<path d="M83.591 138.497L83.0575 138.109L85.0401 135.424L85.9556 123.536L77.6169 116.744L73.8427 108.266L74.4421 107.996L78.1504 116.336L86.6406 123.247L85.6855 135.661L83.591 138.497Z" fill="#1E40AF" data-index="21"></path>
<path d="M143.266 132.324L140.25 127.301L140.816 126.959L143.411 131.284L150.914 124.129L151.368 124.603L143.266 132.324Z" fill="#1E40AF" data-index="22"></path>
<path d="M295.399 237.612L294.97 237.111L306.458 227.271L329.129 232.129L364.321 182.895L364.552 182.974L387.045 190.471L405.495 164.445L405.765 164.63L466.375 207.354L465.993 207.894L405.653 165.36L387.302 191.247L364.572 183.678L329.419 232.866L306.635 227.989L295.399 237.612Z" fill="#1E40AF" data-index="23"></path>
<path d="M398.598 197.012L389.739 193.142L390.003 192.537L398.137 196.091L405.251 164.826L405.896 164.971L398.598 197.012Z" fill="#1E40AF" data-index="24"></path>
<path d="M347.071 237.261L334.576 235.096L334.688 234.444L346.63 236.517L364.328 185.039L364.954 185.25L347.071 237.261Z" fill="#1E40AF" data-index="25"></path>
<path d="M363.82 181.448C360.083 181.435 356.379 182.157 352.921 183.575C349.463 184.992 346.319 187.076 343.667 189.708C341.014 192.34 338.907 195.468 337.465 198.913C336.023 202.359 335.274 206.055 335.261 209.79C335.248 216.767 337.83 223.499 342.506 228.68C345.867 228.203 349.293 228.516 352.511 229.595C356.105 230.793 359.411 232.722 362.22 235.262H364.782C367.594 232.723 370.902 230.793 374.497 229.595C377.888 228.453 381.509 228.168 385.036 228.766C389.777 223.581 392.406 216.813 392.407 209.79C392.393 206.053 391.642 202.355 390.198 198.908C388.754 195.461 386.644 192.332 383.99 189.7C381.335 187.068 378.187 184.985 374.727 183.569C371.266 182.153 367.56 181.432 363.82 181.448Z" fill="#1D4ED8" data-index="26" style="opacity: 1;"></path>
<path d="M377.112 221.157C376.234 221.595 375.356 222.034 374.478 222.473C373.617 222.939 372.784 223.453 371.981 224.013C371.685 224.217 371.395 224.435 371.099 224.671L375.782 215.963L369.36 226.008C368.701 226.534 368.043 227.067 367.443 227.614C366.411 228.491 365.401 229.413 364.413 230.378L364.084 220.933L370.802 210.711L364.084 219.478L363.788 211.027L363.287 220.498L362.806 229.977C361.943 229.167 361.074 228.377 360.171 227.601C359.467 226.988 358.749 226.383 358.018 225.804L351.945 215.437L356.404 224.579C356.147 224.395 355.897 224.204 355.633 224.026C354.831 223.466 353.998 222.952 353.137 222.486C352.281 222.032 351.405 221.591 350.502 221.17C348.745 220.312 346.942 219.549 345.101 218.886C346.883 219.668 348.62 220.547 350.305 221.519C351.148 221.993 351.978 222.48 352.794 222.98C353.597 223.482 354.369 224.032 355.106 224.625C356.575 225.8 357.976 227.057 359.302 228.39C360.461 229.542 361.594 230.74 362.674 231.945L362.108 243.937H364.92L364.519 232.392C365.724 231.01 367.008 229.654 368.326 228.344C369.652 227.011 371.053 225.754 372.521 224.579C373.259 223.986 374.031 223.436 374.833 222.934C375.65 222.434 376.48 221.947 377.323 221.473C379.01 220.501 380.75 219.622 382.533 218.84C380.685 219.512 378.875 220.286 377.112 221.157Z" fill="#1E40AF" data-index="27"></path>
<path d="M144.557 220.34C144.557 228.482 139.986 229.094 134.348 229.094C128.709 229.094 124.138 228.482 124.138 220.34C124.138 212.198 128.709 195.17 134.348 195.17C139.986 195.17 144.557 212.191 144.557 220.34Z" fill="#1D4ED8" data-index="28" style="opacity: 1; visibility: visible;"></path>
<path d="M137.799 224.034L136.113 224.152L140.506 221.19L137.371 222.776L137.799 221.532L136.363 223.283L134.677 224.132L134.545 218.287L135.441 216.122L134.525 217.34L134.446 213.95L137.246 210.218L134.427 213.101L134.255 205.637L134.104 210.415L132.312 208.414L134.077 211.33L133.84 218.9L132.273 217.879L130.85 215.358L131.423 217.32L128.63 215.497L133.807 219.959L133.024 244.793H135.151L134.703 225.1L135.197 224.771L137.799 224.034Z" fill="#1E40AF" data-index="29" style="opacity: 1;"></path>
<path d="M419.096 192.294C419.096 208.203 410.164 209.408 399.151 209.408C388.139 209.408 379.207 208.203 379.207 192.294C379.207 176.386 388.132 143.113 399.151 143.113C410.171 143.113 419.096 176.399 419.096 192.294Z" fill="#1D4ED8" data-index="30"></path>
<path opacity="0.31" d="M419.096 192.294C419.096 208.203 410.164 209.408 399.151 209.408C388.139 209.408 379.207 208.203 379.207 192.294C379.207 176.386 388.132 143.113 399.151 143.113C410.171 143.113 419.096 176.399 419.096 192.294Z" fill="white" data-index="31" style="opacity: 1; visibility: visible; fill: rgb(99, 133, 228);"></path>
<path d="M405.896 199.514L402.596 199.738L411.185 193.952L405.053 197.052L405.896 194.63L403.09 198.039L399.797 199.705L399.534 188.278L401.279 184.046L399.494 186.429L399.343 179.8L404.81 172.521L399.303 178.148L398.967 163.562L398.677 172.902L395.167 168.993L398.618 174.693L398.15 189.476L395.101 187.482L392.321 182.558L393.434 186.396L387.974 182.828L398.085 191.543L396.556 240.072H400.719L399.837 201.594L400.805 200.949L405.896 199.514Z" fill="#1E40AF" data-index="32" style="opacity: 1;"></path>
<path d="M461.791 198.554C461.791 206.702 457.22 207.315 451.581 207.315C445.943 207.315 441.372 206.702 441.372 198.554C441.372 190.405 445.943 173.391 451.581 173.391C457.22 173.391 461.791 190.412 461.791 198.554Z" fill="#1D4ED8" data-index="33"></path>
<path opacity="0.5" d="M461.791 198.554C461.791 206.702 457.22 207.315 451.581 207.315C445.943 207.315 441.372 206.702 441.372 198.554C441.372 190.405 445.943 173.391 451.581 173.391C457.22 173.391 461.791 190.412 461.791 198.554Z" fill="white" data-index="34"></path>
<path d="M455.033 202.252L453.347 202.364L457.74 199.402L454.598 200.989L455.033 199.751L453.597 201.495L451.911 202.351L451.779 196.5L452.668 194.334L451.759 195.552L451.68 192.162L454.48 188.437L451.66 191.32L451.489 183.855L451.338 188.627L449.546 186.633L451.311 189.549L451.068 197.118L449.507 196.092L448.084 193.571L448.657 195.539L445.864 193.709L451.035 198.171L450.251 223.006H452.385L451.937 203.319L452.424 202.983L455.033 202.252Z" fill="#1E40AF" data-index="35"></path>
<path d="M45.7307 191.669C45.7307 199.811 41.1596 200.43 35.5214 200.43C29.8832 200.43 25.3121 199.811 25.3121 191.669C25.3121 183.527 29.8832 166.525 35.5214 166.525C41.1596 166.525 45.7307 183.527 45.7307 191.669Z" fill="#1D4ED8" data-index="36"></path>
<path opacity="0.5" d="M45.7307 191.669C45.7307 199.811 41.1596 200.43 35.5214 200.43C29.8832 200.43 25.3121 199.811 25.3121 191.669C25.3121 183.527 29.8832 166.525 35.5214 166.525C41.1596 166.525 45.7307 183.527 45.7307 191.669Z" fill="white" data-index="37"></path>
<path d="M38.9725 195.363L37.2863 195.481L41.6796 192.519L38.5378 194.106L38.9725 192.868L37.5366 194.613L35.8504 195.462L35.7187 189.617L36.6079 187.451L35.6989 188.669L35.6199 185.279L38.4126 181.554L35.6001 184.43L35.4288 176.973L35.2774 181.745L33.4858 179.744L35.251 182.666L35.0139 190.229L33.4463 189.209L32.0235 186.688L32.5966 188.656L29.8038 186.826L34.9744 191.289L34.1906 216.123H36.3246L35.8767 196.429L36.3642 196.1L38.9725 195.363Z" fill="#1E40AF" data-index="38"></path>
<path d="M96.3097 173.2C92.5722 173.187 88.8686 173.909 85.4106 175.327C81.9526 176.744 78.8078 178.828 76.1558 181.46C73.5037 184.092 71.3964 187.22 69.9541 190.666C68.5119 194.111 67.7629 197.807 67.7499 201.542C67.7376 208.521 70.3197 215.255 74.9953 220.439C78.3556 219.959 81.7817 220.27 85.0004 221.347C88.5942 222.545 91.9002 224.475 94.7091 227.015H97.3241C100.136 224.475 103.444 222.546 107.039 221.347C110.431 220.212 114.05 219.927 117.578 220.518C122.309 215.33 124.929 208.561 124.922 201.542C124.908 197.803 124.157 194.103 122.711 190.654C121.265 187.206 119.153 184.076 116.496 181.443C113.838 178.811 110.688 176.728 107.224 175.313C103.76 173.899 100.051 173.181 96.3097 173.2Z" fill="#1D4ED8" data-index="39"></path>
<path opacity="0.33" d="M96.3097 173.2C92.5722 173.187 88.8686 173.909 85.4106 175.327C81.9526 176.744 78.8078 178.828 76.1558 181.46C73.5037 184.092 71.3964 187.22 69.9541 190.666C68.5119 194.111 67.7629 197.807 67.7499 201.542C67.7376 208.521 70.3197 215.255 74.9953 220.439C78.3556 219.959 81.7817 220.27 85.0004 221.347C88.5942 222.545 91.9002 224.475 94.7091 227.015H97.3241C100.136 224.475 103.444 222.546 107.039 221.347C110.431 220.212 114.05 219.927 117.578 220.518C122.309 215.33 124.929 208.561 124.922 201.542C124.908 197.803 124.157 194.103 122.711 190.654C121.265 187.206 119.153 184.076 116.496 181.443C113.838 178.811 110.688 176.728 107.224 175.313C103.76 173.899 100.051 173.181 96.3097 173.2Z" fill="white" data-index="40" style="opacity: 1; visibility: visible; fill: rgb(99, 133, 228);"></path>
<path d="M109.601 212.916C108.723 213.355 107.845 213.794 106.967 214.232C106.105 214.694 105.271 215.206 104.47 215.766L103.588 216.424L108.271 207.71L101.849 217.76C101.195 218.283 100.556 218.816 99.9322 219.36C98.8981 220.262 97.8903 221.176 96.9023 222.124L96.573 212.679L103.291 202.457L96.5268 211.251L96.2305 202.793L95.7496 212.251L95.2688 221.736C94.406 220.92 93.5365 220.13 92.6341 219.353C91.9316 218.743 91.2136 218.144 90.4803 217.556L84.4074 207.19L88.8666 216.339C88.6097 216.148 88.3594 215.963 88.0959 215.779C87.2951 215.219 86.4615 214.707 85.5996 214.246C84.7433 213.785 83.8673 213.344 82.9649 212.929C81.2072 212.071 79.4042 211.308 77.5638 210.645C79.3684 211.416 81.1277 212.288 82.8332 213.258C83.6763 213.732 84.5062 214.221 85.3229 214.726C86.1252 215.226 86.8972 215.774 87.6349 216.365C89.1022 217.541 90.5029 218.798 91.8306 220.13C92.9898 221.282 94.1227 222.48 95.2029 223.691L94.5904 235.723H97.4029L97.0011 224.178C98.2065 222.796 99.4909 221.44 100.808 220.13C102.136 218.798 103.537 217.541 105.004 216.365C105.742 215.774 106.514 215.226 107.316 214.726C108.119 214.186 108.947 213.697 109.799 213.258C111.486 212.297 113.225 211.431 115.009 210.665C113.167 211.316 111.362 212.068 109.601 212.916Z" fill="#1E40AF" data-index="41" style="opacity: 1;"></path>
<path d="M175.6 257.785V231.688H141.58V214.969L170.759 145.857H195.65V215.364H206.432V231.688H195.65V257.805L175.6 257.785ZM158.475 215.364H175.6V167.842L158.475 215.364Z" fill="#1E40AF" data-index="42" style="opacity: 1;"></path>
<path d="M246.532 257.846C239.8 257.846 234.223 256.464 229.802 253.699C225.412 250.982 221.94 247.011 219.836 242.299C217.64 237.472 216.543 231.877 216.543 225.515V175.353C216.543 168.815 217.601 163.082 219.717 158.154C221.707 153.379 225.141 149.344 229.538 146.615C233.964 143.851 239.633 142.469 246.545 142.469C253.369 142.469 258.97 143.851 263.347 146.615C267.709 149.366 271.113 153.396 273.096 158.154C275.212 163.077 276.27 168.81 276.27 175.353V225.515C276.27 231.864 275.173 237.459 272.977 242.299C270.874 247.01 267.405 250.981 263.018 253.699C258.57 256.464 253.074 257.846 246.532 257.846ZM246.532 239.054C249.021 239.054 250.82 238.271 251.926 236.704C253.074 235.028 253.83 233.116 254.139 231.109C254.489 229.125 254.674 227.115 254.693 225.1V175.741C254.684 173.613 254.521 171.488 254.205 169.383C253.943 167.333 253.21 165.371 252.064 163.65C250.958 162.044 249.114 161.239 246.532 161.234C243.95 161.23 242.083 162.035 240.933 163.65C239.745 165.355 238.986 167.322 238.72 169.383C238.404 171.488 238.241 173.613 238.232 175.741V225.107C238.248 227.122 238.433 229.132 238.786 231.116C239.098 233.146 239.906 235.067 241.137 236.711C242.336 238.273 244.134 239.054 246.532 239.054Z" fill="#1E40AF" data-index="43" style="opacity: 1;"></path>
<path d="M321.89 257.785V231.688H287.876V214.969L317.049 145.857H341.94V215.364H352.722V231.688H341.94V257.805L321.89 257.785ZM304.764 215.364H321.89V167.842L304.764 215.364Z" fill="#1E40AF" data-index="44" style="opacity: 1;"></path>

<path d="M248.817 251.547C200.043 251.547 152.606 246.736 111.637 237.633C71.7348 228.773 39.6314 216.261 18.7648 201.432L19.1469 200.898C39.9146 215.655 71.9324 228.128 111.755 236.975C152.711 246.084 200.076 250.889 248.817 250.889C337.171 250.889 418.095 235.283 465.288 209.146L465.611 209.725C418.332 235.908 337.289 251.547 248.817 251.547Z" fill="#1E40AF" data-index="46" style="opacity: 1;"></path>
<path d="M469.102 207.737L468.766 207.171C470.86 205.94 472.902 204.67 474.832 203.406L475.194 203.953C473.251 205.229 471.203 206.5 469.102 207.737Z" fill="#1E40AF" data-index="47"></path>
<path d="M447.32 197.234C447.32 213.873 437.98 215.13 426.466 215.13C414.953 215.13 405.58 213.873 405.58 197.234C405.58 180.594 414.92 145.814 426.44 145.814C437.96 145.814 447.32 180.594 447.32 197.234Z" fill="#1D4ED8" data-index="48" style="opacity: 1;"></path>
<path d="M433.514 204.782L430.063 205.019L439.054 198.97L432.632 202.208L433.514 199.68L430.583 203.248L427.138 204.986L426.868 193.033L428.693 188.616L426.822 191.097L426.664 184.173L432.381 176.558L426.624 182.442L426.275 167.191L425.966 176.953L422.304 172.865L425.907 178.829L425.419 194.29L422.231 192.203L419.32 187.056L420.486 191.065L414.782 187.339L425.353 196.449L423.753 247.196H428.106L427.184 206.96L428.192 206.282L433.514 204.782Z" fill="#1E40AF" data-index="49" style="opacity: 1;"></path>
<path d="M425.057 247.645C425.057 247.645 417.364 239.674 419.524 239.911C421.684 240.148 425.722 246.111 425.722 246.111C425.722 246.111 425.781 232.947 427.698 235.85C429.615 238.752 427.257 246.17 427.257 246.17C427.257 246.17 432.743 237.614 432.737 239.009C432.697 243.333 428.502 246.717 428.502 246.717C428.502 246.717 437.301 240.207 435.879 242.879C434.456 245.552 428.818 248.013 428.818 248.013C428.818 248.013 438.955 245.966 435.352 247.408C431.749 248.849 428.324 249.837 428.324 249.837H425.524C425.524 249.837 415.954 245.038 419.557 245.756C421.482 246.078 423.34 246.716 425.057 247.645Z" fill="#1E40AF" data-index="50"></path>
<path d="M56.3089 237.745C56.3089 237.745 49.6498 230.854 51.5138 231.064C53.3778 231.275 56.8819 236.422 56.8819 236.422C56.8819 236.422 56.9281 225.062 58.5945 227.55C60.2609 230.038 58.2125 236.468 58.2125 236.468C58.2125 236.468 62.9614 229.07 62.9483 230.275C62.9483 234.02 59.2927 236.942 59.2927 236.942C59.2927 236.942 66.8937 231.315 65.6488 233.598C64.4039 235.882 59.543 238.035 59.543 238.035C59.543 238.035 68.3098 236.271 65.1943 237.515C62.0788 238.759 59.1214 239.588 59.1214 239.588H56.6909C56.6909 239.588 48.4181 235.441 51.527 236.06C53.202 236.358 54.8172 236.928 56.3089 237.745Z" fill="#1E40AF" data-index="51" style="opacity: 1;"></path>
<path d="M80.3699 188.162C80.3699 204.821 71.0235 206.078 59.4902 206.078C47.957 206.078 38.6105 204.821 38.6105 188.162C38.6105 171.503 47.9635 136.684 59.4902 136.684C71.0169 136.684 80.3699 171.503 80.3699 188.162Z" fill="#1D4ED8" data-index="52" style="opacity: 1;"></path>
<path d="M66.5512 195.72L63.0998 195.956L72.0906 189.901L65.6686 193.146L66.5512 190.612L63.6135 194.186L60.1687 195.924L59.8987 183.964L61.7232 179.534L59.8525 182.022L59.6945 175.085L65.4183 167.463L59.6549 173.36L59.3058 158.09L58.9963 167.864L55.3275 163.77L58.937 169.74L58.4496 185.215L55.255 183.128L52.3437 177.974L53.5096 181.989L47.7924 178.257L58.3837 187.38L56.7766 238.18H61.1369L60.2148 197.905L61.2226 197.227L66.5512 195.72Z" fill="#1E40AF" data-index="53" style="opacity: 1;"></path>
<path d="M129.197 255.06C129.197 255.06 122.538 248.168 124.408 248.379C126.279 248.589 129.777 253.737 129.777 253.737C129.777 253.737 129.823 242.376 131.483 244.864C133.142 247.352 131.1 253.783 131.1 253.783C131.1 253.783 135.849 246.384 135.843 247.589C135.843 251.334 132.181 254.257 132.181 254.257C132.181 254.257 139.788 248.629 138.543 250.913C137.299 253.197 132.431 255.382 132.431 255.382C132.431 255.382 141.198 253.618 138.082 254.862C134.967 256.106 132.003 256.962 132.003 256.962H129.599C129.599 256.962 121.319 252.815 124.435 253.434C126.1 253.714 127.708 254.263 129.197 255.06Z" fill="#1E40AF" data-index="54" style="opacity: 1;"></path>
<path d="M164.508 270.167C164.508 270.167 157.849 263.276 159.719 263.486C161.59 263.697 165.088 268.844 165.088 268.844C165.088 268.844 165.134 257.483 166.793 259.971C168.453 262.459 166.411 268.89 166.411 268.89C166.411 268.89 171.16 261.492 171.154 262.703C171.121 266.442 167.492 269.364 167.492 269.364C167.492 269.364 175.099 263.736 173.854 266.02C172.609 268.304 167.801 270.457 167.801 270.457C167.801 270.457 176.568 268.693 173.453 269.937C170.337 271.181 167.373 272.036 167.373 272.036H164.956C164.956 272.036 156.676 267.89 159.792 268.508C161.443 268.803 163.036 269.364 164.508 270.167Z" fill="#1E40AF" data-index="55" style="opacity: 1;"></path>
<path d="M259.316 260.024C259.316 260.024 254.515 255.054 255.865 255.206C257.215 255.357 259.731 259.069 259.731 259.069C259.731 259.069 259.771 250.875 260.97 252.672C262.169 254.469 260.693 259.109 260.693 259.109C260.693 259.109 264.118 253.764 264.112 254.64C264.112 257.338 261.477 259.445 261.477 259.445C261.477 259.445 266.964 255.383 266.088 257.036C265.212 258.688 261.681 260.234 261.681 260.234C261.681 260.234 268.004 258.957 265.752 259.859C263.499 260.761 261.372 261.373 261.372 261.373H259.626C259.626 261.373 253.652 258.378 255.898 258.826C257.094 259.039 258.249 259.444 259.316 260.024Z" fill="#1E40AF" data-index="56"></path>
<path d="M445.759 248.143C445.759 248.143 442.024 244.273 443.071 244.391C444.119 244.509 446.082 247.399 446.082 247.399C446.082 247.399 446.082 241.021 447.043 242.416C448.005 243.812 446.826 247.425 446.826 247.425C446.826 247.425 449.46 243.272 449.46 243.95C449.46 246.05 447.405 247.689 447.405 247.689C447.405 247.689 451.674 244.529 450.975 245.813C450.277 247.096 447.55 248.301 447.55 248.301C447.55 248.301 452.471 247.313 450.719 248.011C448.967 248.709 447.307 249.189 447.307 249.189H445.956C445.956 249.189 441.306 246.859 443.058 247.215C444.004 247.372 444.916 247.686 445.759 248.143Z" fill="#1E40AF" data-index="57"></path>
<path d="M194.082 260.05C194.082 260.05 187.423 253.158 189.294 253.369C191.164 253.58 194.662 258.727 194.662 258.727C194.662 258.727 194.708 247.366 196.368 249.854C198.028 252.342 195.992 258.78 195.992 258.78C195.992 258.78 200.741 251.375 200.728 252.586C200.695 256.324 197.072 259.247 197.072 259.247C197.072 259.247 204.673 253.619 203.429 255.903C202.184 258.187 197.323 260.339 197.323 260.339C197.323 260.339 206.083 258.575 202.968 259.819C199.852 261.064 196.895 261.919 196.895 261.919H194.471C194.471 261.919 186.191 257.772 189.307 258.391C190.978 258.68 192.592 259.24 194.082 260.05Z" fill="#1D4ED8" data-index="58" style="opacity: 1;"></path>
<path d="M146.065 255.475C146.065 255.475 141.6 250.868 142.858 250.986C144.116 251.105 146.454 254.587 146.454 254.587C146.454 254.587 146.454 246.965 147.6 248.663C148.746 250.361 147.343 254.646 147.343 254.646C147.343 254.646 150.531 249.676 150.525 250.493C150.525 253 148.068 254.962 148.068 254.962C148.068 254.962 153.166 251.184 152.329 252.717C151.493 254.251 148.239 255.692 148.239 255.692C148.239 255.692 154.114 254.508 152.026 255.344C149.938 256.18 147.949 256.752 147.949 256.752H146.329C146.329 256.752 140.776 253.968 142.864 254.389C143.984 254.572 145.066 254.939 146.065 255.475Z" fill="#1D4ED8" data-index="59"></path>
<path d="M90.25 273.735C90.25 273.735 85.7842 269.128 87.0423 269.253C88.3003 269.378 90.6386 272.846 90.6386 272.846C90.6386 272.846 90.6715 265.224 91.7847 266.923C92.8978 268.621 91.5278 272.906 91.5278 272.906C91.5278 272.906 94.6894 267.89 94.6894 268.726C94.6894 271.234 92.2326 273.195 92.2326 273.195C92.2326 273.195 97.3306 269.417 96.5007 270.951C95.6708 272.484 92.4038 273.926 92.4038 273.926C92.4038 273.926 98.2791 272.741 96.1911 273.577C94.1032 274.413 92.114 274.986 92.114 274.986H90.4937C90.4937 274.986 84.9411 272.201 87.0291 272.623C88.1572 272.812 89.2457 273.188 90.25 273.735Z" fill="#1D4ED8" data-index="60"></path>
<path d="M239.596 274.63C239.596 274.63 235.13 270.022 236.382 270.147C237.633 270.272 239.985 273.741 239.985 273.741C239.985 273.741 240.018 266.119 241.131 267.817C242.244 269.515 240.874 273.8 240.874 273.8C240.874 273.8 244.062 268.837 244.049 269.647C244.049 272.155 241.598 274.116 241.598 274.116C241.598 274.116 246.696 270.338 245.86 271.872C245.023 273.405 241.763 274.847 241.763 274.847C241.763 274.847 247.645 273.662 245.557 274.498C243.469 275.334 241.48 275.906 241.48 275.906H239.853C239.853 275.906 234.307 273.122 236.395 273.543C237.515 273.727 238.596 274.093 239.596 274.63Z" fill="#1D4ED8" data-index="61"></path>
<path d="M312.049 274.865C312.049 274.865 307.59 270.258 308.842 270.383C310.093 270.508 312.438 273.983 312.438 273.983C312.438 273.983 312.471 266.361 313.584 268.059C314.697 269.757 313.327 274.036 313.327 274.036C313.327 274.036 316.515 269.073 316.508 269.883C316.508 272.397 314.052 274.358 314.052 274.358C314.052 274.358 319.15 270.58 318.32 272.114C317.49 273.647 314.223 275.089 314.223 275.089C314.223 275.089 320.098 273.904 318.01 274.74C315.922 275.576 313.933 276.149 313.933 276.149H312.313C312.313 276.149 306.76 273.364 308.848 273.779C309.967 273.966 311.048 274.333 312.049 274.865Z" fill="#1D4ED8" data-index="62"></path>
<path d="M446.727 260.406C446.727 260.406 439.929 253.37 441.84 253.581C443.75 253.791 447.313 259.057 447.313 259.057C447.313 259.057 447.366 247.453 449.059 250C450.751 252.547 448.67 259.11 448.67 259.11C448.67 259.11 453.524 251.547 453.511 252.784C453.511 256.602 449.776 259.59 449.776 259.59C449.776 259.59 457.536 253.844 456.264 256.174C454.993 258.504 450.033 260.703 450.033 260.703C450.033 260.703 458.978 258.899 455.797 260.169C452.615 261.44 449.592 262.315 449.592 262.315H447.122C447.122 262.315 438.671 258.076 441.853 258.715C443.558 259.011 445.205 259.582 446.727 260.406Z" fill="#1D4ED8" data-index="63"></path>
<path d="M41.6931 260.406C41.6931 260.406 34.8956 253.37 36.7992 253.581C38.7027 253.791 42.2793 259.057 42.2793 259.057C42.2793 259.057 42.332 247.453 44.0248 250C45.7175 252.547 43.6361 259.11 43.6361 259.11C43.6361 259.11 48.4839 251.547 48.4773 252.784C48.4773 256.602 44.7427 259.59 44.7427 259.59C44.7427 259.59 52.5347 253.844 51.2174 256.174C49.9001 258.504 44.9798 260.703 44.9798 260.703C44.9798 260.703 53.9311 258.899 50.7497 260.169C47.5684 261.44 44.5451 262.315 44.5451 262.315H42.0883C42.0883 262.315 33.6376 258.076 36.8189 258.715C38.5246 259.011 40.1708 259.582 41.6931 260.406Z" fill="#1D4ED8" data-index="64" style="opacity: 1;"></path>
<path d="M75.2256 250.473C75.2256 250.473 68.2701 238.481 70.2527 237.559C72.2352 236.638 76.3387 245.754 76.3387 245.754C76.3387 245.754 75.5418 228.568 77.3926 230.154C79.2435 231.74 80.9626 243.904 80.9626 243.904C80.9626 243.904 84.6709 230.681 85.8631 233.458C87.0553 236.236 84.908 244.648 84.908 244.648C84.908 244.648 90.2234 234.531 90.757 237.835C91.2905 241.14 88.2409 246.557 88.2409 246.557C88.2409 246.557 95.2491 239.553 95.7826 242.331C96.3161 245.109 93.9317 247.88 93.9317 247.88C93.9317 247.88 103.186 242.858 100.94 245.635C98.6939 248.413 95.3874 251.98 95.3874 251.98C95.3874 251.98 104.246 248.808 103.186 250.664C102.126 252.52 98.1604 254.495 98.1604 254.495C98.1604 254.495 105.406 253.178 104.642 254.363C103.901 255.292 103.011 256.09 102.007 256.726H69.0736C69.0736 256.726 60.3463 253.573 63.8043 253.31C66.0608 253.209 68.3113 253.614 70.391 254.495C70.391 254.495 59.6745 247.254 64.7001 246.702C69.7257 246.149 73.8292 252.513 73.8292 252.513C73.8292 252.513 66.6893 242.469 69.2186 244.056L75.2256 250.473Z" fill="#1D4ED8" data-index="65" style="opacity: 1;"></path>
<path d="M75.6735 253.883C75.6735 253.883 66.6893 244.582 69.212 244.865C71.7347 245.148 76.4573 252.106 76.4573 252.106C76.4573 252.106 76.5232 236.776 78.7627 240.133C81.0021 243.49 78.2226 252.158 78.2226 252.158C78.2226 252.158 84.6314 242.173 84.6182 243.806C84.5721 248.854 79.6782 252.797 79.6782 252.797C79.6782 252.797 89.9403 245.208 88.2409 248.282C86.5415 251.355 80.001 254.271 80.001 254.271C80.001 254.271 91.857 251.888 87.6283 253.567C83.3997 255.245 79.4279 256.404 79.4279 256.404H76.1346C76.1346 256.404 64.9373 250.802 69.1725 251.645C71.4486 252.026 73.6456 252.782 75.6735 253.883Z" fill="#1E40AF" data-index="66"></path>
<path d="M79.54 256.734H76.1149L76.0425 256.694C67.6511 252.488 67.8816 251.824 67.9738 251.547C68.1187 251.126 68.7049 251.205 69.2911 251.323C70.96 251.646 72.5927 252.133 74.1653 252.778C71.636 250.073 67.987 245.9 68.5007 244.88C68.571 244.751 68.6824 244.649 68.8173 244.59C68.9522 244.532 69.1027 244.52 69.245 244.557C71.3659 244.794 74.7647 249.197 76.1281 251.093C76.1808 247.486 76.464 239.811 77.9658 239.364C78.3346 239.252 78.6903 239.456 79.0328 239.963C80.6663 242.411 79.7969 247.4 79.1184 250.224C83.8081 243.076 84.3878 243.26 84.6578 243.333C84.7592 243.366 84.8457 243.433 84.9023 243.523C84.9588 243.614 84.9819 243.721 84.9674 243.826C84.829 246.278 83.9053 248.62 82.3327 250.507C85.2375 248.493 87.9973 246.848 88.5967 247.374C88.9655 247.697 88.6625 248.25 88.544 248.46C87.4506 250.468 84.4405 252.363 82.3393 253.502C88.6559 252.311 88.7745 252.692 88.8601 252.975C88.9787 253.377 88.4979 253.601 87.7601 253.897C83.5974 255.562 79.5729 256.727 79.5334 256.74L79.54 256.734ZM76.3059 256.076H79.4478C79.8891 255.944 83.5117 254.871 87.3518 253.364C85.7841 253.542 82.8597 254.022 80.1591 254.595L77.4125 255.148L77.8143 255.569L75.5551 254.16C73.5773 253.093 71.4398 252.353 69.2253 251.968L68.9684 251.922C71.3012 253.464 73.7325 254.851 76.2467 256.076H76.3059ZM69.1199 245.189C69.1199 246.031 72.5976 250.191 75.9437 253.653L77.3532 255.115L79.9352 253.969C80.0011 253.969 86.4099 251.073 88.017 248.125C88.0636 248.047 88.1032 247.965 88.1356 247.881C87.1739 248.039 83.2417 250.606 79.9286 253.061L79.5268 252.541C79.5729 252.508 84.0519 248.835 84.3285 244.182C83.3603 245.156 80.7849 248.855 78.552 252.337L77.2347 254.43L77.9855 252.061C77.9855 251.975 80.6663 243.504 78.5388 240.312C78.328 239.989 78.2161 239.976 78.2161 239.976C77.4981 240.108 76.8658 245.656 76.8395 252.1V253.16L76.2401 252.284C74.9227 250.382 71.1815 245.406 69.2384 245.189H69.1199Z" fill="#1E40AF" data-index="67" style="opacity: 1;"></path>
<path d="M371.461 271.562C371.461 271.562 358.288 248.906 362.062 247.156C365.836 245.405 373.569 262.623 373.569 262.623C373.569 262.623 372.067 230.148 375.545 233.142C379.022 236.137 382.296 259.128 382.296 259.128C382.296 259.128 389.298 234.117 391.55 239.382C393.803 244.648 389.772 260.53 389.772 260.53C389.772 260.53 399.823 241.409 400.824 247.656C401.826 253.902 396.075 264.144 396.075 264.144C396.075 264.144 409.328 250.901 410.329 256.147C411.33 261.393 406.825 266.645 406.825 266.645C406.825 266.645 424.326 257.147 420.077 262.393C415.829 267.639 409.578 274.392 409.578 274.392C409.578 274.392 426.328 268.389 424.326 271.891C422.323 275.393 414.828 279.131 414.828 279.131C414.828 279.131 428.581 276.63 427.079 278.881C425.577 281.132 422.086 283.337 422.086 283.337H359.816C359.816 283.337 343.31 277.38 349.811 276.88C356.312 276.38 362.325 279.131 362.325 279.131C362.325 279.131 342.078 265.388 351.576 264.387C361.074 263.387 368.826 275.379 368.826 275.379C368.826 275.379 355.324 256.39 360.079 259.392L371.461 271.562Z" fill="#1D4ED8" data-index="68"></path>
<path d="M372.311 278.013C372.311 278.013 355.33 260.432 360.132 260.958C364.934 261.485 373.813 274.636 373.813 274.636C373.813 274.636 373.938 245.675 378.173 252.007C382.408 258.339 377.205 274.754 377.205 274.754C377.205 274.754 389.311 255.877 389.285 258.957C389.199 268.495 379.958 275.952 379.958 275.952C379.958 275.952 399.342 261.603 396.168 267.396C392.993 273.188 380.551 278.75 380.551 278.75C380.551 278.75 402.899 274.241 394.956 277.433C387.012 280.626 379.457 282.791 379.457 282.791H373.305C373.305 282.791 352.228 272.207 360.132 273.793C368.036 275.38 372.311 278.013 372.311 278.013Z" fill="#1E40AF" data-index="69" style="opacity: 1;"></path>
<path d="M379.517 283.1H373.22L373.147 283.067C366.014 279.487 357.603 274.958 358.044 273.681C358.196 273.24 358.802 273.174 360.198 273.451C363.809 274.14 367.325 275.258 370.671 276.781C366.778 272.668 358.024 263.071 359.006 261.083C359.124 260.833 359.421 260.557 360.119 260.636C364.315 261.096 371.316 270.627 373.444 273.596C373.503 268.185 373.905 251.651 376.737 250.808C377.297 250.637 377.863 250.98 378.43 251.822C381.815 256.91 379.378 268.001 378.12 272.7C382.178 266.447 387.961 257.937 389.219 258.312C389.364 258.358 389.601 258.496 389.594 258.97C389.542 264.894 385.965 270.081 383.225 273.181C388.119 269.706 395.404 264.861 396.602 265.901C397.064 266.303 396.728 267.06 396.438 267.593C394.067 271.93 386.848 276.011 383.06 277.927C396.682 275.294 396.892 276.051 397.004 276.353C397.129 276.775 396.681 277.097 395.107 277.729C387.203 280.875 379.648 283.074 379.576 283.094L379.517 283.1ZM373.371 282.442H379.424C380.083 282.258 387.328 280.118 394.85 277.11C395.239 276.961 395.619 276.792 395.99 276.604C394.073 276.604 386.999 277.788 380.623 279.072L377.686 279.664L380.426 278.447C380.551 278.394 392.756 272.924 395.845 267.257C396.234 266.553 396.148 266.368 396.148 266.368C395.285 265.77 387.157 270.976 380.116 276.242L379.714 275.722C379.806 275.649 388.804 268.277 388.936 259.036C387.618 259.839 382.138 267.665 377.462 274.952L376.144 277.045L376.895 274.675C376.948 274.51 382.006 258.352 377.903 252.21C377.692 251.888 377.277 251.361 376.954 251.46C374.978 252.052 374.188 266 374.149 274.655V275.722L373.556 274.84C373.464 274.708 364.67 261.814 360.106 261.307C359.987 261.307 359.711 261.274 359.658 261.392C358.999 262.768 366.811 271.818 372.594 277.802L374.445 279.717L372.179 278.308C372.14 278.308 367.891 275.676 360.112 274.116C359.682 274.007 359.239 273.958 358.795 273.971C359.473 275.05 366.6 279.039 373.371 282.442Z" fill="#1E40AF" data-index="70"></path>
<path d="M97.8836 251.151C97.8836 251.151 99.2009 249.934 100.38 249.934C101.559 249.934 105.056 251.625 105.056 251.625C105.056 251.625 106.466 253.797 106.591 253.929C106.716 254.061 108.449 254.798 108.567 255.101C108.686 255.403 108.949 256.417 108.949 256.417H98.1998L96.2238 251.204L97.8836 251.151Z" fill="white" data-index="71" style="opacity: 1;"></path>
<path d="M109.39 256.734H97.9823L95.7494 250.876L97.7583 250.823C98.1008 250.54 99.293 249.605 100.393 249.605C101.585 249.605 104.846 251.159 105.214 251.33L105.293 251.369L105.346 251.448C106.005 252.455 106.749 253.588 106.848 253.706L107.322 253.943C108.389 254.47 108.784 254.707 108.896 254.97C109.008 255.233 109.272 256.214 109.298 256.319L109.39 256.734ZM98.4302 256.076H108.521C108.45 255.788 108.365 255.505 108.264 255.227C107.861 254.966 107.441 254.733 107.006 254.529C106.771 254.436 106.55 254.312 106.347 254.16C106.216 254.029 105.353 252.712 104.819 251.883C103.792 251.396 101.229 250.264 100.367 250.264C99.3523 250.264 98.1008 251.383 98.0877 251.396L97.9954 251.475L96.6781 251.514L98.4302 256.076Z" fill="#1E40AF" data-index="72"></path>
<path d="M100.38 249.935L100.314 250.961C100.314 250.961 103.067 252.561 103.008 253.14C102.849 253.798 102.628 254.439 102.349 255.055L103.759 256.53H96.283L96.8561 252.113C96.8561 252.113 98.4566 249.81 100.38 249.935Z" fill="#1E40AF" data-index="73"></path>
<path d="M83.8539 250.513C83.8539 250.513 89.2352 242.443 90.4406 242.318C91.3756 242.344 92.2916 242.589 93.1143 243.034C93.937 243.479 94.6434 244.111 95.1764 244.879C95.9746 246.523 96.6184 248.237 97.0997 250C97.1656 250.191 97.4224 250.322 98.8913 252.685C100.36 255.048 100.301 256.404 100.301 256.404H79.4935C79.7404 255.242 80.1506 254.121 80.7121 253.073C81.3608 252.253 82.2609 251.668 83.2743 251.408L83.8539 250.513Z" fill="white" data-index="74"></path>
<path d="M100.617 256.734H79.0787L79.1577 256.333C79.414 255.133 79.8398 253.976 80.4224 252.897C81.0803 252.031 82.0069 251.409 83.057 251.126L83.5708 250.33C84.8881 248.408 89.1365 242.128 90.4077 241.99C91.4077 242.011 92.3885 242.269 93.2691 242.742C94.1498 243.216 94.9051 243.892 95.4729 244.715C96.279 246.316 96.9148 247.997 97.3699 249.731L97.416 249.895L97.5411 250.06C97.7519 250.343 98.1998 250.935 99.1812 252.515C100.69 254.944 100.643 256.359 100.637 256.418L100.617 256.734ZM79.902 256.076H99.9584C99.7417 254.927 99.2935 253.834 98.6411 252.864C98.146 252.037 97.6096 251.235 97.0339 250.461C96.9407 250.357 96.8671 250.236 96.8166 250.106C96.7922 250.044 96.7724 249.98 96.7573 249.915C96.3286 248.228 95.7122 246.594 94.9196 245.044C94.4198 244.329 93.7601 243.741 92.9929 243.325C92.2258 242.909 91.3722 242.677 90.5 242.648C89.8413 242.747 86.7258 246.815 84.1438 250.692L83.4852 251.699L83.3534 251.732C82.4224 251.968 81.593 252.499 80.9888 253.246C80.5023 254.135 80.141 255.088 79.9152 256.076H79.902Z" fill="#1E40AF" data-index="75"></path>
<path d="M92.1136 256.272C92.1136 256.272 91.5405 254.863 91.4549 254.672C91.3693 254.481 91.389 252.625 91.198 251.855C90.6981 250.756 90.0984 249.705 89.4065 248.715L90.5591 245.391L89.9795 244.944L90.9412 242.574L90.4076 242.324C89.143 242.548 83.821 250.512 83.821 250.512L83.2413 251.407C82.228 251.668 81.3279 252.252 80.6791 253.073C80.1321 254.077 79.7328 255.154 79.4935 256.272H92.1136Z" fill="#1E40AF" data-index="76"></path>
<path d="M305.357 253.16C305.793 252.756 306.338 252.491 306.925 252.396C307.649 252.396 309.856 253.456 309.856 253.456C309.856 253.456 310.738 254.819 310.817 254.898C310.896 254.977 311.983 255.444 312.062 255.635C312.141 255.826 312.306 256.451 312.306 256.451H305.555L304.31 253.16H305.357Z" fill="white" data-index="77"></path>
<path d="M312.708 256.779H305.331L303.842 252.869L305.232 252.83C305.704 252.407 306.295 252.141 306.925 252.066C307.702 252.066 309.763 253.047 310.001 253.159L310.08 253.199L310.132 253.278C310.534 253.903 310.995 254.594 311.068 254.679C311.14 254.765 311.186 254.726 311.324 254.798C312.029 255.153 312.28 255.305 312.365 255.502C312.468 255.784 312.553 256.072 312.622 256.364L312.708 256.779ZM305.765 256.121H311.858C311.812 255.963 311.766 255.825 311.739 255.759C311.713 255.693 311.213 255.489 311.008 255.384C310.848 255.322 310.699 255.236 310.567 255.127C310.216 254.678 309.897 254.205 309.612 253.712C308.755 253.271 307.845 252.939 306.905 252.725C306.4 252.808 305.931 253.037 305.555 253.383L305.469 253.462H304.764L305.765 256.121Z" fill="#1E40AF" data-index="78" style="opacity: 1;"></path>
<path d="M306.925 252.396L306.885 253.054C306.885 253.054 308.611 254.061 308.571 254.423C308.476 254.836 308.341 255.24 308.17 255.627L309.052 256.549H304.349L304.712 253.778C304.712 253.778 305.719 252.317 306.925 252.396Z" fill="#1E40AF" data-index="79"></path>
<path d="M296.557 252.752C296.557 252.752 299.936 247.69 300.7 247.611C301.286 247.63 301.86 247.784 302.376 248.063C302.892 248.342 303.335 248.737 303.671 249.217C304.17 250.249 304.573 251.324 304.876 252.429C304.916 252.548 305.074 252.633 306.003 254.114C306.505 254.795 306.811 255.602 306.885 256.444H293.83C293.983 255.716 294.241 255.013 294.595 254.358C295.001 253.843 295.566 253.475 296.202 253.311L296.557 252.752Z" fill="white" data-index="80"></path>
<path d="M307.195 256.78H293.422L293.508 256.379C293.669 255.613 293.94 254.875 294.311 254.187C294.731 253.631 295.321 253.227 295.991 253.035L296.287 252.574C297.605 250.639 299.864 247.374 300.661 247.309C301.311 247.316 301.95 247.481 302.524 247.788C303.097 248.095 303.588 248.536 303.954 249.073C304.47 250.086 304.874 251.152 305.16 252.252V252.344C305.16 252.344 305.16 252.344 305.219 252.416C305.351 252.594 305.634 252.963 306.253 253.963C306.792 254.698 307.116 255.569 307.188 256.477L307.195 256.78ZM294.252 256.122H306.516C306.36 255.47 306.09 254.851 305.719 254.292C305.113 253.325 304.843 252.976 304.718 252.798C304.652 252.722 304.599 252.635 304.56 252.541L304.527 252.423C304.258 251.372 303.873 250.355 303.381 249.389C303.081 248.963 302.688 248.612 302.231 248.362C301.775 248.112 301.267 247.97 300.746 247.947C300.305 248.092 298.375 250.652 296.847 252.936L296.419 253.594L296.294 253.627C295.739 253.765 295.245 254.079 294.884 254.523C294.605 255.025 294.397 255.563 294.265 256.122H294.252Z" fill="#1E40AF" data-index="81" style="opacity: 1;"></path>
<path d="M301.741 256.371C301.741 256.371 301.379 255.483 301.339 255.364C301.3 255.246 301.3 254.048 301.181 253.6C300.865 252.91 300.488 252.249 300.055 251.626L300.779 249.539L300.417 249.256L301.016 247.775L300.68 247.617C299.89 247.755 296.557 252.751 296.557 252.751L296.202 253.311C295.566 253.475 295.001 253.842 294.594 254.357C294.25 254.987 293.999 255.663 293.85 256.365L301.741 256.371Z" fill="#1E40AF" data-index="82"></path>
<path d="M414.287 272.848C414.287 272.848 416.83 270.551 419.01 270.551C421.19 270.551 427.849 273.75 427.849 273.75C427.849 273.75 430.517 277.85 430.754 278.1C430.991 278.351 434.265 279.739 434.508 280.312C434.752 280.885 435.233 282.774 435.233 282.774H414.893L411.139 272.933L414.287 272.848Z" fill="white" data-index="83"></path>
<path d="M435.661 283.103H414.669L410.665 272.611L414.143 272.499C414.637 272.071 416.929 270.195 418.99 270.195C421.223 270.195 427.698 273.295 427.975 273.427L428.054 273.467L428.106 273.546C429.114 275.099 430.787 277.633 430.971 277.844C431.051 277.903 431.538 278.146 431.966 278.364C433.777 279.265 434.601 279.739 434.792 280.161C435.042 280.746 435.516 282.589 435.536 282.668L435.661 283.103ZM415.124 282.445H434.812C434.653 281.859 434.37 280.825 434.206 280.47C434.041 280.114 432.454 279.384 431.689 279.002C431.278 278.826 430.887 278.605 430.524 278.344C430.28 278.1 428.31 275.053 427.625 274.019C426.855 273.657 420.966 270.893 419.01 270.893C417.054 270.893 414.531 273.085 414.511 273.105L414.419 273.19L411.613 273.263L415.124 282.445Z" fill="#1E40AF" data-index="84"></path>
<path d="M419.01 270.523L418.891 272.458C418.891 272.458 424.095 275.486 423.976 276.572C423.686 277.818 423.28 279.034 422.764 280.205L425.399 282.99H411.238L412.324 274.637C412.324 274.637 415.381 270.312 419.01 270.523Z" fill="#1E40AF" data-index="85"></path>
<path d="M387.796 271.643C387.796 271.643 397.972 256.399 400.271 256.155C402.57 255.912 407.411 257.847 409.229 260.993C411.047 264.139 412.739 270.313 412.865 270.675C412.99 271.037 413.471 271.281 416.25 275.757C419.03 280.233 418.918 282.773 418.918 282.773H379.536C379.536 282.773 380.386 278.778 381.841 276.481C383.297 274.184 386.683 273.335 386.683 273.335L387.796 271.643Z" fill="white" data-index="86"></path>
<path d="M419.201 283.102H379.134L379.22 282.707C379.22 282.536 380.096 278.626 381.558 276.303C382.922 274.15 385.82 273.235 386.472 273.051L387.499 271.458C388.547 269.885 397.821 256.076 400.212 255.826C402.603 255.576 407.602 257.557 409.486 260.828C410.572 262.704 411.771 265.87 413.056 270.247C413.102 270.418 413.135 270.53 413.148 270.57C413.222 270.711 413.313 270.844 413.418 270.965C413.82 271.498 414.65 272.597 416.507 275.572C419.313 280.087 419.221 282.674 419.221 282.779L419.201 283.102ZM379.951 282.444H418.549C418.476 281.647 418.081 279.363 415.914 275.928C414.973 274.357 413.953 272.834 412.858 271.366C412.705 271.189 412.581 270.989 412.489 270.774L412.39 270.431C411.119 266.107 409.94 262.987 408.886 261.157C407.154 258.156 402.445 256.241 400.245 256.478C398.684 256.642 391.912 265.975 388.013 271.82L386.854 273.624L386.729 273.657C386.729 273.657 383.435 274.499 382.118 276.658C381.13 278.477 380.401 280.424 379.951 282.444Z" fill="#1E40AF" data-index="87"></path>
<path d="M403.393 282.528C403.393 282.528 402.3 279.896 402.181 279.507C402.063 279.119 402.063 275.63 401.694 274.182C401.325 272.734 398.308 268.258 398.308 268.258L400.488 261.966L399.395 261.117L401.213 256.641L400.199 256.174C397.814 256.602 387.77 271.648 387.77 271.648L386.683 273.34C386.683 273.34 383.291 274.189 381.842 276.486C380.597 278.461 379.8 281.646 379.595 282.535L403.393 282.528Z" fill="#1E40AF" data-index="88" style="opacity: 1;"></path>
</g>
<defs>
<clipPath id="clip0_935_12314">
<rect width="494" height="287.017" fill="white" transform="translate(0.5)"></rect>
</clipPath>
</defs>
</svg>